<?xml version="1.0" encoding="UTF-8" standalone="no"?>
<!DOCTYPE svg PUBLIC "-//W3C//DTD SVG 1.1//EN"
 "http://www.w3.org/Graphics/SVG/1.1/DTD/svg11.dtd">
<!-- Generated by graphviz version 12.2.1 (20241206.2353)
 -->
<!-- Title: G Pages: 1 -->
<svg width="2447pt" height="927pt"
 viewBox="0.00 0.00 2446.95 927.37" xmlns="http://www.w3.org/2000/svg" xmlns:xlink="http://www.w3.org/1999/xlink">
<g id="graph0" class="graph" transform="scale(1 1) rotate(0) translate(21.6 905.77)">
<title>G</title>
<polygon fill="#111111" stroke="none" points="-21.6,21.6 -21.6,-905.77 2425.35,-905.77 2425.35,21.6 -21.6,21.6"/>
<!-- index.ts -->
<g id="node1" class="node">
<title>index.ts</title>
<path fill="none" stroke="#c6c5fe" d="M54.58,-365.88C54.58,-365.88 7.92,-365.88 7.92,-365.88 3.96,-365.88 0,-361.92 0,-357.96 0,-357.96 0,-350.04 0,-350.04 0,-346.08 3.96,-342.12 7.92,-342.12 7.92,-342.12 54.58,-342.12 54.58,-342.12 58.54,-342.12 62.5,-346.08 62.5,-350.04 62.5,-350.04 62.5,-357.96 62.5,-357.96 62.5,-361.92 58.54,-365.88 54.58,-365.88"/>
<text text-anchor="middle" x="31.25" y="-348.57" font-family="Arial" font-size="14.00" fill="#c6c5fe">index.ts</text>
</g>
<!-- types/index.ts -->
<g id="node2" class="node">
<title>types/index.ts</title>
<path fill="none" stroke="#c6c5fe" d="M189.08,-365.88C189.08,-365.88 106.42,-365.88 106.42,-365.88 102.46,-365.88 98.5,-361.92 98.5,-357.96 98.5,-357.96 98.5,-350.04 98.5,-350.04 98.5,-346.08 102.46,-342.12 106.42,-342.12 106.42,-342.12 189.08,-342.12 189.08,-342.12 193.04,-342.12 197,-346.08 197,-350.04 197,-350.04 197,-357.96 197,-357.96 197,-361.92 193.04,-365.88 189.08,-365.88"/>
<text text-anchor="middle" x="147.75" y="-348.57" font-family="Arial" font-size="14.00" fill="#c6c5fe">types/index.ts</text>
</g>
<!-- index.ts&#45;&gt;types/index.ts -->
<g id="edge1" class="edge">
<title>index.ts&#45;&gt;types/index.ts</title>
<path fill="none" stroke="#757575" d="M62.93,-354C70.4,-354 78.65,-354 86.96,-354"/>
<polygon fill="#757575" stroke="#757575" points="86.77,-357.5 96.77,-354 86.77,-350.5 86.77,-357.5"/>
</g>
<!-- types/behaviors/index.ts -->
<g id="node5" class="node">
<title>types/behaviors/index.ts</title>
<path fill="none" stroke="#c6c5fe" d="M1297.71,-869.88C1297.71,-869.88 1152.79,-869.88 1152.79,-869.88 1148.83,-869.88 1144.88,-865.92 1144.88,-861.96 1144.88,-861.96 1144.88,-854.04 1144.88,-854.04 1144.88,-850.08 1148.83,-846.12 1152.79,-846.12 1152.79,-846.12 1297.71,-846.12 1297.71,-846.12 1301.67,-846.12 1305.62,-850.08 1305.62,-854.04 1305.62,-854.04 1305.62,-861.96 1305.62,-861.96 1305.62,-865.92 1301.67,-869.88 1297.71,-869.88"/>
<text text-anchor="middle" x="1225.25" y="-852.58" font-family="Arial" font-size="14.00" fill="#c6c5fe">types/behaviors/index.ts</text>
</g>
<!-- types/index.ts&#45;&gt;types/behaviors/index.ts -->
<g id="edge15" class="edge">
<title>types/index.ts&#45;&gt;types/behaviors/index.ts</title>
<path fill="none" stroke="#757575" d="M150.9,-366.06C165.07,-441.21 251.88,-842 492.25,-842 492.25,-842 492.25,-842 721,-842 865.14,-842 1032.39,-848.64 1133.17,-853.36"/>
<polygon fill="#757575" stroke="#757575" points="1132.86,-856.85 1143.01,-853.83 1133.19,-849.86 1132.86,-856.85"/>
</g>
<!-- types/config/index.ts -->
<g id="node11" class="node">
<title>types/config/index.ts</title>
<path fill="none" stroke="#c6c5fe" d="M1562.33,-595.88C1562.33,-595.88 1439.92,-595.88 1439.92,-595.88 1435.96,-595.88 1432,-591.92 1432,-587.96 1432,-587.96 1432,-580.04 1432,-580.04 1432,-576.08 1435.96,-572.12 1439.92,-572.12 1439.92,-572.12 1562.33,-572.12 1562.33,-572.12 1566.29,-572.12 1570.25,-576.08 1570.25,-580.04 1570.25,-580.04 1570.25,-587.96 1570.25,-587.96 1570.25,-591.92 1566.29,-595.88 1562.33,-595.88"/>
<text text-anchor="middle" x="1501.12" y="-578.58" font-family="Arial" font-size="14.00" fill="#c6c5fe">types/config/index.ts</text>
</g>
<!-- types/index.ts&#45;&gt;types/config/index.ts -->
<g id="edge16" class="edge">
<title>types/index.ts&#45;&gt;types/config/index.ts</title>
<path fill="none" stroke="#757575" d="M197.48,-362.81C263.89,-374.04 386.65,-392 492.25,-392 492.25,-392 492.25,-392 952.62,-392 1137.01,-392 1200.82,-351.58 1365.25,-435 1422.53,-464.06 1467.17,-528.37 1487.73,-562.21"/>
<polygon fill="#757575" stroke="#757575" points="1484.67,-563.91 1492.78,-570.74 1490.7,-560.35 1484.67,-563.91"/>
</g>
<!-- types/primitives/index.ts -->
<g id="node13" class="node">
<title>types/primitives/index.ts</title>
<path fill="none" stroke="#c6c5fe" d="M1985.46,-500.88C1985.46,-500.88 1841.29,-500.88 1841.29,-500.88 1837.33,-500.88 1833.38,-496.92 1833.38,-492.96 1833.38,-492.96 1833.38,-485.04 1833.38,-485.04 1833.38,-481.08 1837.33,-477.12 1841.29,-477.12 1841.29,-477.12 1985.46,-477.12 1985.46,-477.12 1989.42,-477.12 1993.38,-481.08 1993.38,-485.04 1993.38,-485.04 1993.38,-492.96 1993.38,-492.96 1993.38,-496.92 1989.42,-500.88 1985.46,-500.88"/>
<text text-anchor="middle" x="1913.38" y="-483.57" font-family="Arial" font-size="14.00" fill="#c6c5fe">types/primitives/index.ts</text>
</g>
<!-- types/index.ts&#45;&gt;types/primitives/index.ts -->
<g id="edge20" class="edge">
<title>types/index.ts&#45;&gt;types/primitives/index.ts</title>
<path fill="none" stroke="#757575" d="M197.39,-354C263.94,-354 387.14,-354 492.25,-354 492.25,-354 492.25,-354 1502.12,-354 1650.52,-354 1814.67,-434.69 1881.51,-471.3"/>
<polygon fill="#757575" stroke="#757575" points="1879.63,-474.26 1890.07,-476.05 1883.02,-468.14 1879.63,-474.26"/>
</g>
<!-- types/context/index.ts -->
<g id="node14" class="node">
<title>types/context/index.ts</title>
<path fill="none" stroke="#cfffac" d="M1780.83,-49.88C1780.83,-49.88 1650.92,-49.88 1650.92,-49.88 1646.96,-49.88 1643,-45.92 1643,-41.96 1643,-41.96 1643,-34.04 1643,-34.04 1643,-30.08 1646.96,-26.12 1650.92,-26.12 1650.92,-26.12 1780.83,-26.12 1780.83,-26.12 1784.79,-26.12 1788.75,-30.08 1788.75,-34.04 1788.75,-34.04 1788.75,-41.96 1788.75,-41.96 1788.75,-45.92 1784.79,-49.88 1780.83,-49.88"/>
<text text-anchor="middle" x="1715.88" y="-32.58" font-family="Arial" font-size="14.00" fill="#cfffac">types/context/index.ts</text>
</g>
<!-- types/index.ts&#45;&gt;types/context/index.ts -->
<g id="edge17" class="edge">
<title>types/index.ts&#45;&gt;types/context/index.ts</title>
<path fill="none" stroke="#757575" d="M152.53,-341.78C162.13,-312.22 189.78,-235.61 233,-185 324.92,-77.35 350.7,0 492.25,0 492.25,0 492.25,0 1226.25,0 1368.87,0 1534.2,-16.29 1631.36,-27.54"/>
<polygon fill="#757575" stroke="#757575" points="1630.73,-30.99 1641.07,-28.67 1631.54,-24.04 1630.73,-30.99"/>
</g>
<!-- types/contracts/index.ts -->
<g id="node16" class="node">
<title>types/contracts/index.ts</title>
<path fill="none" stroke="#c6c5fe" d="M1786.46,-245.88C1786.46,-245.88 1645.29,-245.88 1645.29,-245.88 1641.33,-245.88 1637.38,-241.92 1637.38,-237.96 1637.38,-237.96 1637.38,-230.04 1637.38,-230.04 1637.38,-226.08 1641.33,-222.12 1645.29,-222.12 1645.29,-222.12 1786.46,-222.12 1786.46,-222.12 1790.42,-222.12 1794.38,-226.08 1794.38,-230.04 1794.38,-230.04 1794.38,-237.96 1794.38,-237.96 1794.38,-241.92 1790.42,-245.88 1786.46,-245.88"/>
<text text-anchor="middle" x="1715.88" y="-228.57" font-family="Arial" font-size="14.00" fill="#c6c5fe">types/contracts/index.ts</text>
</g>
<!-- types/index.ts&#45;&gt;types/contracts/index.ts -->
<g id="edge18" class="edge">
<title>types/index.ts&#45;&gt;types/contracts/index.ts</title>
<path fill="none" stroke="#757575" d="M197.48,-345.19C263.89,-333.96 386.65,-316 492.25,-316 492.25,-316 492.25,-316 1226.25,-316 1385.66,-316 1570.34,-273.03 1660.16,-249.3"/>
<polygon fill="#757575" stroke="#757575" points="1660.93,-252.72 1669.69,-246.76 1659.13,-245.95 1660.93,-252.72"/>
</g>
<!-- types/nodes/index.ts -->
<g id="node18" class="node">
<title>types/nodes/index.ts</title>
<path fill="none" stroke="#c6c5fe" d="M554.83,-559.88C554.83,-559.88 431.67,-559.88 431.67,-559.88 427.71,-559.88 423.75,-555.92 423.75,-551.96 423.75,-551.96 423.75,-544.04 423.75,-544.04 423.75,-540.08 427.71,-536.12 431.67,-536.12 431.67,-536.12 554.83,-536.12 554.83,-536.12 558.79,-536.12 562.75,-540.08 562.75,-544.04 562.75,-544.04 562.75,-551.96 562.75,-551.96 562.75,-555.92 558.79,-559.88 554.83,-559.88"/>
<text text-anchor="middle" x="493.25" y="-542.58" font-family="Arial" font-size="14.00" fill="#c6c5fe">types/nodes/index.ts</text>
</g>
<!-- types/index.ts&#45;&gt;types/nodes/index.ts -->
<g id="edge19" class="edge">
<title>types/index.ts&#45;&gt;types/nodes/index.ts</title>
<path fill="none" stroke="#757575" d="M154.01,-366.06C165.05,-389.98 192.99,-443.56 233,-472 286.11,-509.75 357.93,-528.91 412.51,-538.54"/>
<polygon fill="#757575" stroke="#757575" points="411.6,-541.94 422.04,-540.15 412.76,-535.03 411.6,-541.94"/>
</g>
<!-- types/results/index.ts -->
<g id="node19" class="node">
<title>types/results/index.ts</title>
<path fill="none" stroke="#c6c5fe" d="M783.08,-207.88C783.08,-207.88 656.92,-207.88 656.92,-207.88 652.96,-207.88 649,-203.92 649,-199.96 649,-199.96 649,-192.04 649,-192.04 649,-188.08 652.96,-184.12 656.92,-184.12 656.92,-184.12 783.08,-184.12 783.08,-184.12 787.04,-184.12 791,-188.08 791,-192.04 791,-192.04 791,-199.96 791,-199.96 791,-203.92 787.04,-207.88 783.08,-207.88"/>
<text text-anchor="middle" x="720" y="-190.57" font-family="Arial" font-size="14.00" fill="#c6c5fe">types/results/index.ts</text>
</g>
<!-- types/index.ts&#45;&gt;types/results/index.ts -->
<g id="edge21" class="edge">
<title>types/index.ts&#45;&gt;types/results/index.ts</title>
<path fill="none" stroke="#757575" d="M164.96,-341.67C181.3,-329.82 207.66,-312.24 233,-302 305.63,-272.67 519.35,-231.68 637.74,-210.29"/>
<polygon fill="#757575" stroke="#757575" points="638.18,-213.76 647.4,-208.55 636.94,-206.87 638.18,-213.76"/>
</g>
<!-- types/state/index.ts -->
<g id="node20" class="node">
<title>types/state/index.ts</title>
<path fill="none" stroke="#c6c5fe" d="M356.58,-217.88C356.58,-217.88 240.92,-217.88 240.92,-217.88 236.96,-217.88 233,-213.92 233,-209.96 233,-209.96 233,-202.04 233,-202.04 233,-198.08 236.96,-194.12 240.92,-194.12 240.92,-194.12 356.58,-194.12 356.58,-194.12 360.54,-194.12 364.5,-198.08 364.5,-202.04 364.5,-202.04 364.5,-209.96 364.5,-209.96 364.5,-213.92 360.54,-217.88 356.58,-217.88"/>
<text text-anchor="middle" x="298.75" y="-200.57" font-family="Arial" font-size="14.00" fill="#c6c5fe">types/state/index.ts</text>
</g>
<!-- types/index.ts&#45;&gt;types/state/index.ts -->
<g id="edge22" class="edge">
<title>types/index.ts&#45;&gt;types/state/index.ts</title>
<path fill="none" stroke="#757575" d="M155.77,-341.72C168.78,-319.78 198.45,-273.32 233,-243 241.22,-235.79 251.06,-229.31 260.56,-223.86"/>
<polygon fill="#757575" stroke="#757575" points="262.21,-226.95 269.31,-219.09 258.86,-220.8 262.21,-226.95"/>
</g>
<!-- types/workflow.ts -->
<g id="node21" class="node">
<title>types/workflow.ts</title>
<path fill="none" stroke="#c6c5fe" d="M349.83,-462.88C349.83,-462.88 247.67,-462.88 247.67,-462.88 243.71,-462.88 239.75,-458.92 239.75,-454.96 239.75,-454.96 239.75,-447.04 239.75,-447.04 239.75,-443.08 243.71,-439.12 247.67,-439.12 247.67,-439.12 349.83,-439.12 349.83,-439.12 353.79,-439.12 357.75,-443.08 357.75,-447.04 357.75,-447.04 357.75,-454.96 357.75,-454.96 357.75,-458.92 353.79,-462.88 349.83,-462.88"/>
<text text-anchor="middle" x="298.75" y="-445.57" font-family="Arial" font-size="14.00" fill="#c6c5fe">types/workflow.ts</text>
</g>
<!-- types/index.ts&#45;&gt;types/workflow.ts -->
<g id="edge23" class="edge">
<title>types/index.ts&#45;&gt;types/workflow.ts</title>
<path fill="none" stroke="#757575" d="M167.62,-366.29C193.37,-383.05 239.72,-413.22 269.59,-432.67"/>
<polygon fill="#757575" stroke="#757575" points="267.47,-435.47 277.76,-437.99 271.29,-429.6 267.47,-435.47"/>
</g>
<!-- types/behaviors/conditions.ts -->
<g id="node3" class="node">
<title>types/behaviors/conditions.ts</title>
<path fill="none" stroke="#c6c5fe" d="M2213.33,-798.88C2213.33,-798.88 2039.92,-798.88 2039.92,-798.88 2035.96,-798.88 2032,-794.92 2032,-790.96 2032,-790.96 2032,-783.04 2032,-783.04 2032,-779.08 2035.96,-775.12 2039.92,-775.12 2039.92,-775.12 2213.33,-775.12 2213.33,-775.12 2217.29,-775.12 2221.25,-779.08 2221.25,-783.04 2221.25,-783.04 2221.25,-790.96 2221.25,-790.96 2221.25,-794.92 2217.29,-798.88 2213.33,-798.88"/>
<text text-anchor="middle" x="2126.62" y="-781.58" font-family="Arial" font-size="14.00" fill="#c6c5fe">types/behaviors/conditions.ts</text>
</g>
<!-- utils/template/index.ts -->
<g id="node4" class="node">
<title>utils/template/index.ts</title>
<path fill="none" stroke="#cfffac" d="M2395.83,-664.88C2395.83,-664.88 2265.17,-664.88 2265.17,-664.88 2261.21,-664.88 2257.25,-660.92 2257.25,-656.96 2257.25,-656.96 2257.25,-649.04 2257.25,-649.04 2257.25,-645.08 2261.21,-641.12 2265.17,-641.12 2265.17,-641.12 2395.83,-641.12 2395.83,-641.12 2399.79,-641.12 2403.75,-645.08 2403.75,-649.04 2403.75,-649.04 2403.75,-656.96 2403.75,-656.96 2403.75,-660.92 2399.79,-664.88 2395.83,-664.88"/>
<text text-anchor="middle" x="2330.5" y="-647.58" font-family="Arial" font-size="14.00" fill="#cfffac">utils/template/index.ts</text>
</g>
<!-- types/behaviors/conditions.ts&#45;&gt;utils/template/index.ts -->
<g id="edge2" class="edge">
<title>types/behaviors/conditions.ts&#45;&gt;utils/template/index.ts</title>
<path fill="none" stroke="#757575" d="M2146.26,-774.63C2181.86,-751 2259.74,-699.31 2301.59,-671.53"/>
<polygon fill="#757575" stroke="#757575" points="2303.26,-674.62 2309.65,-666.17 2299.39,-668.79 2303.26,-674.62"/>
</g>
<!-- types/behaviors/index.ts&#45;&gt;types/behaviors/conditions.ts -->
<g id="edge3" class="edge">
<title>types/behaviors/index.ts&#45;&gt;types/behaviors/conditions.ts</title>
<path fill="none" stroke="#757575" d="M1305.78,-869.58C1335.65,-873.39 1369.94,-877.13 1401.25,-879 1489.87,-884.3 1512.56,-886.7 1601,-879 1768.92,-864.39 1963.7,-823.94 2061.95,-801.86"/>
<polygon fill="#757575" stroke="#757575" points="2062.7,-805.28 2071.68,-799.66 2061.15,-798.45 2062.7,-805.28"/>
</g>
<!-- types/behaviors/notifications.ts -->
<g id="node6" class="node">
<title>types/behaviors/notifications.ts</title>
<path fill="none" stroke="#cfffac" d="M1593.08,-869.88C1593.08,-869.88 1409.17,-869.88 1409.17,-869.88 1405.21,-869.88 1401.25,-865.92 1401.25,-861.96 1401.25,-861.96 1401.25,-854.04 1401.25,-854.04 1401.25,-850.08 1405.21,-846.12 1409.17,-846.12 1409.17,-846.12 1593.08,-846.12 1593.08,-846.12 1597.04,-846.12 1601,-850.08 1601,-854.04 1601,-854.04 1601,-861.96 1601,-861.96 1601,-865.92 1597.04,-869.88 1593.08,-869.88"/>
<text text-anchor="middle" x="1501.12" y="-852.58" font-family="Arial" font-size="14.00" fill="#cfffac">types/behaviors/notifications.ts</text>
</g>
<!-- types/behaviors/index.ts&#45;&gt;types/behaviors/notifications.ts -->
<g id="edge4" class="edge">
<title>types/behaviors/index.ts&#45;&gt;types/behaviors/notifications.ts</title>
<path fill="none" stroke="#757575" d="M1305.83,-858C1331.93,-858 1361.42,-858 1389.39,-858"/>
<polygon fill="#757575" stroke="#757575" points="1389.34,-861.5 1399.34,-858 1389.34,-854.5 1389.34,-861.5"/>
</g>
<!-- types/config/activity.ts -->
<g id="node7" class="node">
<title>types/config/activity.ts</title>
<path fill="none" stroke="#c6c5fe" d="M1978.71,-598.88C1978.71,-598.88 1848.04,-598.88 1848.04,-598.88 1844.08,-598.88 1840.12,-594.92 1840.12,-590.96 1840.12,-590.96 1840.12,-583.04 1840.12,-583.04 1840.12,-579.08 1844.08,-575.12 1848.04,-575.12 1848.04,-575.12 1978.71,-575.12 1978.71,-575.12 1982.67,-575.12 1986.62,-579.08 1986.62,-583.04 1986.62,-583.04 1986.62,-590.96 1986.62,-590.96 1986.62,-594.92 1982.67,-598.88 1978.71,-598.88"/>
<text text-anchor="middle" x="1913.38" y="-581.58" font-family="Arial" font-size="14.00" fill="#c6c5fe">types/config/activity.ts</text>
</g>
<!-- types/primitives/shared.ts -->
<g id="node8" class="node">
<title>types/primitives/shared.ts</title>
<path fill="none" stroke="#c6c5fe" d="M2203.21,-643.88C2203.21,-643.88 2050.04,-643.88 2050.04,-643.88 2046.08,-643.88 2042.12,-639.92 2042.12,-635.96 2042.12,-635.96 2042.12,-628.04 2042.12,-628.04 2042.12,-624.08 2046.08,-620.12 2050.04,-620.12 2050.04,-620.12 2203.21,-620.12 2203.21,-620.12 2207.17,-620.12 2211.12,-624.08 2211.12,-628.04 2211.12,-628.04 2211.12,-635.96 2211.12,-635.96 2211.12,-639.92 2207.17,-643.88 2203.21,-643.88"/>
<text text-anchor="middle" x="2126.62" y="-626.58" font-family="Arial" font-size="14.00" fill="#c6c5fe">types/primitives/shared.ts</text>
</g>
<!-- types/config/activity.ts&#45;&gt;types/primitives/shared.ts -->
<g id="edge5" class="edge">
<title>types/config/activity.ts&#45;&gt;types/primitives/shared.ts</title>
<path fill="none" stroke="#757575" d="M1972.38,-599.36C1998.47,-604.91 2029.46,-611.51 2056.72,-617.32"/>
<polygon fill="#757575" stroke="#757575" points="2055.76,-620.7 2066.27,-619.36 2057.22,-613.85 2055.76,-620.7"/>
</g>
<!-- types/primitives/shared.ts&#45;&gt;utils/template/index.ts -->
<g id="edge50" class="edge">
<title>types/primitives/shared.ts&#45;&gt;utils/template/index.ts</title>
<path fill="none" stroke="#757575" d="M2211.48,-640.72C2222.78,-641.9 2234.36,-643.1 2245.66,-644.28"/>
<polygon fill="#757575" stroke="#757575" points="2245.02,-647.73 2255.33,-645.28 2245.74,-640.77 2245.02,-647.73"/>
</g>
<!-- types/config/http.ts -->
<g id="node9" class="node">
<title>types/config/http.ts</title>
<path fill="none" stroke="#c6c5fe" d="M1772.21,-694.88C1772.21,-694.88 1659.54,-694.88 1659.54,-694.88 1655.58,-694.88 1651.62,-690.92 1651.62,-686.96 1651.62,-686.96 1651.62,-679.04 1651.62,-679.04 1651.62,-675.08 1655.58,-671.12 1659.54,-671.12 1659.54,-671.12 1772.21,-671.12 1772.21,-671.12 1776.17,-671.12 1780.12,-675.08 1780.12,-679.04 1780.12,-679.04 1780.12,-686.96 1780.12,-686.96 1780.12,-690.92 1776.17,-694.88 1772.21,-694.88"/>
<text text-anchor="middle" x="1715.88" y="-677.58" font-family="Arial" font-size="14.00" fill="#c6c5fe">types/config/http.ts</text>
</g>
<!-- types/config/http.ts&#45;&gt;types/primitives/shared.ts -->
<g id="edge7" class="edge">
<title>types/config/http.ts&#45;&gt;types/primitives/shared.ts</title>
<path fill="none" stroke="#757575" d="M1780.43,-676.72C1837.07,-670.93 1922.17,-661.79 1996,-652 2009.63,-650.19 2024.03,-648.13 2038.1,-646.02"/>
<polygon fill="#757575" stroke="#757575" points="2038.42,-649.51 2047.78,-644.56 2037.37,-642.59 2038.42,-649.51"/>
</g>
<!-- types/config/protocols.ts -->
<g id="node10" class="node">
<title>types/config/protocols.ts</title>
<path fill="none" stroke="#cfffac" d="M1985.83,-642.88C1985.83,-642.88 1840.92,-642.88 1840.92,-642.88 1836.96,-642.88 1833,-638.92 1833,-634.96 1833,-634.96 1833,-627.04 1833,-627.04 1833,-623.08 1836.96,-619.12 1840.92,-619.12 1840.92,-619.12 1985.83,-619.12 1985.83,-619.12 1989.79,-619.12 1993.75,-623.08 1993.75,-627.04 1993.75,-627.04 1993.75,-634.96 1993.75,-634.96 1993.75,-638.92 1989.79,-642.88 1985.83,-642.88"/>
<text text-anchor="middle" x="1913.38" y="-625.58" font-family="Arial" font-size="14.00" fill="#cfffac">types/config/protocols.ts</text>
</g>
<!-- types/config/http.ts&#45;&gt;types/config/protocols.ts -->
<g id="edge6" class="edge">
<title>types/config/http.ts&#45;&gt;types/config/protocols.ts</title>
<path fill="none" stroke="#757575" d="M1763.21,-670.68C1790.74,-663.35 1825.88,-654.01 1855.14,-646.22"/>
<polygon fill="#757575" stroke="#757575" points="1855.81,-649.67 1864.58,-643.71 1854.01,-642.9 1855.81,-649.67"/>
</g>
<!-- types/config/index.ts&#45;&gt;types/config/activity.ts -->
<g id="edge8" class="edge">
<title>types/config/index.ts&#45;&gt;types/config/activity.ts</title>
<path fill="none" stroke="#757575" d="M1570.33,-584.5C1641.2,-585.02 1752.19,-585.83 1828.41,-586.39"/>
<polygon fill="#757575" stroke="#757575" points="1828.32,-589.89 1838.34,-586.46 1828.37,-582.89 1828.32,-589.89"/>
</g>
<!-- types/config/index.ts&#45;&gt;types/config/http.ts -->
<g id="edge9" class="edge">
<title>types/config/index.ts&#45;&gt;types/config/http.ts</title>
<path fill="none" stroke="#757575" d="M1528.64,-596.34C1566.33,-613.87 1635.53,-646.08 1678.14,-665.9"/>
<polygon fill="#757575" stroke="#757575" points="1676.45,-668.98 1686.99,-670.02 1679.4,-662.63 1676.45,-668.98"/>
</g>
<!-- types/config/index.ts&#45;&gt;types/config/protocols.ts -->
<g id="edge10" class="edge">
<title>types/config/index.ts&#45;&gt;types/config/protocols.ts</title>
<path fill="none" stroke="#757575" d="M1570.73,-592.22C1591.97,-594.74 1615.45,-597.51 1637,-600 1698.46,-607.1 1767.67,-614.89 1821.32,-620.89"/>
<polygon fill="#757575" stroke="#757575" points="1820.7,-624.34 1831.02,-621.97 1821.47,-617.38 1820.7,-624.34"/>
</g>
<!-- types/config/workflow.ts -->
<g id="node12" class="node">
<title>types/config/workflow.ts</title>
<path fill="none" stroke="#c6c5fe" d="M1786.83,-555.88C1786.83,-555.88 1644.92,-555.88 1644.92,-555.88 1640.96,-555.88 1637,-551.92 1637,-547.96 1637,-547.96 1637,-540.04 1637,-540.04 1637,-536.08 1640.96,-532.12 1644.92,-532.12 1644.92,-532.12 1786.83,-532.12 1786.83,-532.12 1790.79,-532.12 1794.75,-536.08 1794.75,-540.04 1794.75,-540.04 1794.75,-547.96 1794.75,-547.96 1794.75,-551.92 1790.79,-555.88 1786.83,-555.88"/>
<text text-anchor="middle" x="1715.88" y="-538.58" font-family="Arial" font-size="14.00" fill="#c6c5fe">types/config/workflow.ts</text>
</g>
<!-- types/config/index.ts&#45;&gt;types/config/workflow.ts -->
<g id="edge11" class="edge">
<title>types/config/index.ts&#45;&gt;types/config/workflow.ts</title>
<path fill="none" stroke="#757575" d="M1567.69,-571.67C1589.94,-567.49 1614.99,-562.78 1638.03,-558.45"/>
<polygon fill="#757575" stroke="#757575" points="1638.49,-561.92 1647.67,-556.64 1637.2,-555.04 1638.49,-561.92"/>
</g>
<!-- types/config/workflow.ts&#45;&gt;types/primitives/index.ts -->
<g id="edge12" class="edge">
<title>types/config/workflow.ts&#45;&gt;types/primitives/index.ts</title>
<path fill="none" stroke="#757575" d="M1760.75,-531.66C1789.42,-523.59 1827.1,-512.99 1857.72,-504.38"/>
<polygon fill="#757575" stroke="#757575" points="1858.51,-507.79 1867.19,-501.71 1856.62,-501.05 1858.51,-507.79"/>
</g>
<!-- types/primitives/index.ts&#45;&gt;types/primitives/shared.ts -->
<g id="edge49" class="edge">
<title>types/primitives/index.ts&#45;&gt;types/primitives/shared.ts</title>
<path fill="none" stroke="#757575" d="M1932.39,-501.19C1969.32,-526.19 2053.86,-583.42 2097.86,-613.2"/>
<polygon fill="#757575" stroke="#757575" points="2095.86,-616.08 2106.11,-618.79 2099.79,-610.28 2095.86,-616.08"/>
</g>
<!-- types/contracts/agents.ts -->
<g id="node15" class="node">
<title>types/contracts/agents.ts</title>
<path fill="none" stroke="#cfffac" d="M1988.08,-266.88C1988.08,-266.88 1838.67,-266.88 1838.67,-266.88 1834.71,-266.88 1830.75,-262.92 1830.75,-258.96 1830.75,-258.96 1830.75,-251.04 1830.75,-251.04 1830.75,-247.08 1834.71,-243.12 1838.67,-243.12 1838.67,-243.12 1988.08,-243.12 1988.08,-243.12 1992.04,-243.12 1996,-247.08 1996,-251.04 1996,-251.04 1996,-258.96 1996,-258.96 1996,-262.92 1992.04,-266.88 1988.08,-266.88"/>
<text text-anchor="middle" x="1913.38" y="-249.57" font-family="Arial" font-size="14.00" fill="#cfffac">types/contracts/agents.ts</text>
</g>
<!-- types/contracts/index.ts&#45;&gt;types/contracts/agents.ts -->
<g id="edge13" class="edge">
<title>types/contracts/index.ts&#45;&gt;types/contracts/agents.ts</title>
<path fill="none" stroke="#757575" d="M1794.7,-242.36C1802.66,-243.22 1810.81,-244.09 1818.92,-244.96"/>
<polygon fill="#757575" stroke="#757575" points="1818.5,-248.44 1828.82,-246.02 1819.25,-241.48 1818.5,-248.44"/>
</g>
<!-- types/contracts/tools.ts -->
<g id="node17" class="node">
<title>types/contracts/tools.ts</title>
<path fill="none" stroke="#cfffac" d="M1982.08,-224.88C1982.08,-224.88 1844.67,-224.88 1844.67,-224.88 1840.71,-224.88 1836.75,-220.92 1836.75,-216.96 1836.75,-216.96 1836.75,-209.04 1836.75,-209.04 1836.75,-205.08 1840.71,-201.12 1844.67,-201.12 1844.67,-201.12 1982.08,-201.12 1982.08,-201.12 1986.04,-201.12 1990,-205.08 1990,-209.04 1990,-209.04 1990,-216.96 1990,-216.96 1990,-220.92 1986.04,-224.88 1982.08,-224.88"/>
<text text-anchor="middle" x="1913.38" y="-207.57" font-family="Arial" font-size="14.00" fill="#cfffac">types/contracts/tools.ts</text>
</g>
<!-- types/contracts/index.ts&#45;&gt;types/contracts/tools.ts -->
<g id="edge14" class="edge">
<title>types/contracts/index.ts&#45;&gt;types/contracts/tools.ts</title>
<path fill="none" stroke="#757575" d="M1794.7,-225.64C1804.68,-224.57 1814.95,-223.46 1825.07,-222.38"/>
<polygon fill="#757575" stroke="#757575" points="1825.33,-225.87 1834.9,-221.32 1824.59,-218.91 1825.33,-225.87"/>
</g>
<!-- types/nodes/agents.ts -->
<g id="node22" class="node">
<title>types/nodes/agents.ts</title>
<path fill="none" stroke="#c6c5fe" d="M785.71,-559.88C785.71,-559.88 654.29,-559.88 654.29,-559.88 650.33,-559.88 646.38,-555.92 646.38,-551.96 646.38,-551.96 646.38,-544.04 646.38,-544.04 646.38,-540.08 650.33,-536.12 654.29,-536.12 654.29,-536.12 785.71,-536.12 785.71,-536.12 789.67,-536.12 793.62,-540.08 793.62,-544.04 793.62,-544.04 793.62,-551.96 793.62,-551.96 793.62,-555.92 789.67,-559.88 785.71,-559.88"/>
<text text-anchor="middle" x="720" y="-542.58" font-family="Arial" font-size="14.00" fill="#c6c5fe">types/nodes/agents.ts</text>
</g>
<!-- types/nodes/index.ts&#45;&gt;types/nodes/agents.ts -->
<g id="edge37" class="edge">
<title>types/nodes/index.ts&#45;&gt;types/nodes/agents.ts</title>
<path fill="none" stroke="#757575" d="M563.21,-548C585.72,-548 610.98,-548 634.5,-548"/>
<polygon fill="#757575" stroke="#757575" points="634.37,-551.5 644.37,-548 634.37,-544.5 634.37,-551.5"/>
</g>
<!-- types/nodes/common/index.ts -->
<g id="node24" class="node">
<title>types/nodes/common/index.ts</title>
<path fill="none" stroke="#c6c5fe" d="M810.08,-601.88C810.08,-601.88 629.92,-601.88 629.92,-601.88 625.96,-601.88 622,-597.92 622,-593.96 622,-593.96 622,-586.04 622,-586.04 622,-582.08 625.96,-578.12 629.92,-578.12 629.92,-578.12 810.08,-578.12 810.08,-578.12 814.04,-578.12 818,-582.08 818,-586.04 818,-586.04 818,-593.96 818,-593.96 818,-597.92 814.04,-601.88 810.08,-601.88"/>
<text text-anchor="middle" x="720" y="-584.58" font-family="Arial" font-size="14.00" fill="#c6c5fe">types/nodes/common/index.ts</text>
</g>
<!-- types/nodes/index.ts&#45;&gt;types/nodes/common/index.ts -->
<g id="edge38" class="edge">
<title>types/nodes/index.ts&#45;&gt;types/nodes/common/index.ts</title>
<path fill="none" stroke="#757575" d="M560.47,-560.37C585.96,-565.14 615.29,-570.62 641.73,-575.56"/>
<polygon fill="#757575" stroke="#757575" points="640.91,-578.97 651.38,-577.36 642.19,-572.09 640.91,-578.97"/>
</g>
<!-- types/nodes/destination.ts -->
<g id="node25" class="node">
<title>types/nodes/destination.ts</title>
<path fill="none" stroke="#c6c5fe" d="M1029.71,-481.88C1029.71,-481.88 873.54,-481.88 873.54,-481.88 869.58,-481.88 865.62,-477.92 865.62,-473.96 865.62,-473.96 865.62,-466.04 865.62,-466.04 865.62,-462.08 869.58,-458.12 873.54,-458.12 873.54,-458.12 1029.71,-458.12 1029.71,-458.12 1033.67,-458.12 1037.62,-462.08 1037.62,-466.04 1037.62,-466.04 1037.62,-473.96 1037.62,-473.96 1037.62,-477.92 1033.67,-481.88 1029.71,-481.88"/>
<text text-anchor="middle" x="951.62" y="-464.57" font-family="Arial" font-size="14.00" fill="#c6c5fe">types/nodes/destination.ts</text>
</g>
<!-- types/nodes/index.ts&#45;&gt;types/nodes/destination.ts -->
<g id="edge39" class="edge">
<title>types/nodes/index.ts&#45;&gt;types/nodes/destination.ts</title>
<path fill="none" stroke="#757575" d="M531.04,-535.67C556.36,-527.6 590.9,-517.4 622,-511 699.32,-495.08 788.24,-484.45 854.07,-478"/>
<polygon fill="#757575" stroke="#757575" points="854.13,-481.51 863.75,-477.07 853.46,-474.55 854.13,-481.51"/>
</g>
<!-- types/nodes/error&#45;boundary.ts -->
<g id="node26" class="node">
<title>types/nodes/error&#45;boundary.ts</title>
<path fill="none" stroke="#c6c5fe" d="M1041.33,-641.88C1041.33,-641.88 861.92,-641.88 861.92,-641.88 857.96,-641.88 854,-637.92 854,-633.96 854,-633.96 854,-626.04 854,-626.04 854,-622.08 857.96,-618.12 861.92,-618.12 861.92,-618.12 1041.33,-618.12 1041.33,-618.12 1045.29,-618.12 1049.25,-622.08 1049.25,-626.04 1049.25,-626.04 1049.25,-633.96 1049.25,-633.96 1049.25,-637.92 1045.29,-641.88 1041.33,-641.88"/>
<text text-anchor="middle" x="951.62" y="-624.58" font-family="Arial" font-size="14.00" fill="#c6c5fe">types/nodes/error&#45;boundary.ts</text>
</g>
<!-- types/nodes/index.ts&#45;&gt;types/nodes/error&#45;boundary.ts -->
<g id="edge40" class="edge">
<title>types/nodes/index.ts&#45;&gt;types/nodes/error&#45;boundary.ts</title>
<path fill="none" stroke="#757575" d="M512.78,-560.13C536.84,-575.15 580.63,-600.09 622,-611 693.81,-629.94 777.39,-634.55 842.29,-634.5"/>
<polygon fill="#757575" stroke="#757575" points="842.28,-638 852.26,-634.45 842.24,-631 842.28,-638"/>
</g>
<!-- types/nodes/http.ts -->
<g id="node27" class="node">
<title>types/nodes/http.ts</title>
<path fill="none" stroke="#c6c5fe" d="M1008.33,-797.88C1008.33,-797.88 894.92,-797.88 894.92,-797.88 890.96,-797.88 887,-793.92 887,-789.96 887,-789.96 887,-782.04 887,-782.04 887,-778.08 890.96,-774.12 894.92,-774.12 894.92,-774.12 1008.33,-774.12 1008.33,-774.12 1012.29,-774.12 1016.25,-778.08 1016.25,-782.04 1016.25,-782.04 1016.25,-789.96 1016.25,-789.96 1016.25,-793.92 1012.29,-797.88 1008.33,-797.88"/>
<text text-anchor="middle" x="951.62" y="-780.58" font-family="Arial" font-size="14.00" fill="#c6c5fe">types/nodes/http.ts</text>
</g>
<!-- types/nodes/index.ts&#45;&gt;types/nodes/http.ts -->
<g id="edge41" class="edge">
<title>types/nodes/index.ts&#45;&gt;types/nodes/http.ts</title>
<path fill="none" stroke="#757575" d="M498.27,-559.96C510.55,-594.44 551.1,-694.38 622,-739 698.47,-787.12 804.52,-793.93 875.25,-791.98"/>
<polygon fill="#757575" stroke="#757575" points="875.34,-795.48 885.21,-791.63 875.09,-788.48 875.34,-795.48"/>
</g>
<!-- types/nodes/iterator.ts -->
<g id="node29" class="node">
<title>types/nodes/iterator.ts</title>
<path fill="none" stroke="#c6c5fe" d="M1017.71,-523.88C1017.71,-523.88 885.54,-523.88 885.54,-523.88 881.58,-523.88 877.62,-519.92 877.62,-515.96 877.62,-515.96 877.62,-508.04 877.62,-508.04 877.62,-504.08 881.58,-500.12 885.54,-500.12 885.54,-500.12 1017.71,-500.12 1017.71,-500.12 1021.67,-500.12 1025.62,-504.08 1025.62,-508.04 1025.62,-508.04 1025.62,-515.96 1025.62,-515.96 1025.62,-519.92 1021.67,-523.88 1017.71,-523.88"/>
<text text-anchor="middle" x="951.62" y="-506.57" font-family="Arial" font-size="14.00" fill="#c6c5fe">types/nodes/iterator.ts</text>
</g>
<!-- types/nodes/index.ts&#45;&gt;types/nodes/iterator.ts -->
<g id="edge42" class="edge">
<title>types/nodes/index.ts&#45;&gt;types/nodes/iterator.ts</title>
<path fill="none" stroke="#757575" d="M560.03,-535.67C579.88,-532.36 601.77,-529.12 622,-527 704.69,-518.35 799.61,-514.68 866.1,-513.13"/>
<polygon fill="#757575" stroke="#757575" points="865.92,-516.64 875.84,-512.92 865.76,-509.64 865.92,-516.64"/>
</g>
<!-- types/nodes/tools.ts -->
<g id="node30" class="node">
<title>types/nodes/tools.ts</title>
<path fill="none" stroke="#c6c5fe" d="M779.71,-729.88C779.71,-729.88 660.29,-729.88 660.29,-729.88 656.33,-729.88 652.38,-725.92 652.38,-721.96 652.38,-721.96 652.38,-714.04 652.38,-714.04 652.38,-710.08 656.33,-706.12 660.29,-706.12 660.29,-706.12 779.71,-706.12 779.71,-706.12 783.67,-706.12 787.62,-710.08 787.62,-714.04 787.62,-714.04 787.62,-721.96 787.62,-721.96 787.62,-725.92 783.67,-729.88 779.71,-729.88"/>
<text text-anchor="middle" x="720" y="-712.58" font-family="Arial" font-size="14.00" fill="#c6c5fe">types/nodes/tools.ts</text>
</g>
<!-- types/nodes/index.ts&#45;&gt;types/nodes/tools.ts -->
<g id="edge43" class="edge">
<title>types/nodes/index.ts&#45;&gt;types/nodes/tools.ts</title>
<path fill="none" stroke="#757575" d="M510.41,-560.23C549.03,-589.44 646.92,-663.48 693.55,-698.75"/>
<polygon fill="#757575" stroke="#757575" points="691.39,-701.5 701.47,-704.74 695.61,-695.92 691.39,-701.5"/>
</g>
<!-- types/results/agent.ts -->
<g id="node31" class="node">
<title>types/results/agent.ts</title>
<path fill="none" stroke="#c6c5fe" d="M1015.46,-207.88C1015.46,-207.88 887.79,-207.88 887.79,-207.88 883.83,-207.88 879.88,-203.92 879.88,-199.96 879.88,-199.96 879.88,-192.04 879.88,-192.04 879.88,-188.08 883.83,-184.12 887.79,-184.12 887.79,-184.12 1015.46,-184.12 1015.46,-184.12 1019.42,-184.12 1023.38,-188.08 1023.38,-192.04 1023.38,-192.04 1023.38,-199.96 1023.38,-199.96 1023.38,-203.92 1019.42,-207.88 1015.46,-207.88"/>
<text text-anchor="middle" x="951.62" y="-190.57" font-family="Arial" font-size="14.00" fill="#c6c5fe">types/results/agent.ts</text>
</g>
<!-- types/results/index.ts&#45;&gt;types/results/agent.ts -->
<g id="edge53" class="edge">
<title>types/results/index.ts&#45;&gt;types/results/agent.ts</title>
<path fill="none" stroke="#757575" d="M791.46,-196C815.69,-196 843.05,-196 868.15,-196"/>
<polygon fill="#757575" stroke="#757575" points="868,-199.5 878,-196 868,-192.5 868,-199.5"/>
</g>
<!-- types/results/shared.ts -->
<g id="node32" class="node">
<title>types/results/shared.ts</title>
<path fill="none" stroke="#c6c5fe" d="M1568.71,-186.88C1568.71,-186.88 1433.54,-186.88 1433.54,-186.88 1429.58,-186.88 1425.62,-182.92 1425.62,-178.96 1425.62,-178.96 1425.62,-171.04 1425.62,-171.04 1425.62,-167.08 1429.58,-163.12 1433.54,-163.12 1433.54,-163.12 1568.71,-163.12 1568.71,-163.12 1572.67,-163.12 1576.62,-167.08 1576.62,-171.04 1576.62,-171.04 1576.62,-178.96 1576.62,-178.96 1576.62,-182.92 1572.67,-186.88 1568.71,-186.88"/>
<text text-anchor="middle" x="1501.12" y="-169.57" font-family="Arial" font-size="14.00" fill="#c6c5fe">types/results/shared.ts</text>
</g>
<!-- types/results/index.ts&#45;&gt;types/results/shared.ts -->
<g id="edge56" class="edge">
<title>types/results/index.ts&#45;&gt;types/results/shared.ts</title>
<path fill="none" stroke="#757575" d="M733.64,-183.83C755.85,-163.33 804.27,-122.55 854,-106 961.82,-70.12 1255.66,-64.94 1365.25,-95 1408.09,-106.75 1451.11,-136.02 1476.68,-155.7"/>
<polygon fill="#757575" stroke="#757575" points="1474.37,-158.34 1484.4,-161.78 1478.71,-152.84 1474.37,-158.34"/>
</g>
<!-- types/results/tool.ts -->
<g id="node33" class="node">
<title>types/results/tool.ts</title>
<path fill="none" stroke="#c6c5fe" d="M1283.08,-245.88C1283.08,-245.88 1167.42,-245.88 1167.42,-245.88 1163.46,-245.88 1159.5,-241.92 1159.5,-237.96 1159.5,-237.96 1159.5,-230.04 1159.5,-230.04 1159.5,-226.08 1163.46,-222.12 1167.42,-222.12 1167.42,-222.12 1283.08,-222.12 1283.08,-222.12 1287.04,-222.12 1291,-226.08 1291,-230.04 1291,-230.04 1291,-237.96 1291,-237.96 1291,-241.92 1287.04,-245.88 1283.08,-245.88"/>
<text text-anchor="middle" x="1225.25" y="-228.57" font-family="Arial" font-size="14.00" fill="#c6c5fe">types/results/tool.ts</text>
</g>
<!-- types/results/index.ts&#45;&gt;types/results/tool.ts -->
<g id="edge58" class="edge">
<title>types/results/index.ts&#45;&gt;types/results/tool.ts</title>
<path fill="none" stroke="#757575" d="M739.85,-208.25C764.77,-223.65 810.63,-249.25 854,-259 960.87,-283.03 1089.1,-264.11 1163.18,-248.7"/>
<polygon fill="#757575" stroke="#757575" points="1163.62,-252.18 1172.67,-246.67 1162.16,-245.34 1163.62,-252.18"/>
</g>
<!-- types/results/base.ts -->
<g id="node34" class="node">
<title>types/results/base.ts</title>
<path fill="none" stroke="#cfffac" d="M1286.83,-127.88C1286.83,-127.88 1163.67,-127.88 1163.67,-127.88 1159.71,-127.88 1155.75,-123.92 1155.75,-119.96 1155.75,-119.96 1155.75,-112.04 1155.75,-112.04 1155.75,-108.08 1159.71,-104.12 1163.67,-104.12 1163.67,-104.12 1286.83,-104.12 1286.83,-104.12 1290.79,-104.12 1294.75,-108.08 1294.75,-112.04 1294.75,-112.04 1294.75,-119.96 1294.75,-119.96 1294.75,-123.92 1290.79,-127.88 1286.83,-127.88"/>
<text text-anchor="middle" x="1225.25" y="-110.58" font-family="Arial" font-size="14.00" fill="#cfffac">types/results/base.ts</text>
</g>
<!-- types/results/index.ts&#45;&gt;types/results/base.ts -->
<g id="edge54" class="edge">
<title>types/results/index.ts&#45;&gt;types/results/base.ts</title>
<path fill="none" stroke="#757575" d="M740.35,-183.8C765.45,-168.7 811.11,-143.68 854,-133 951.7,-108.66 1068.28,-107.73 1144.17,-110.67"/>
<polygon fill="#757575" stroke="#757575" points="1143.88,-114.17 1154.02,-111.09 1144.17,-107.17 1143.88,-114.17"/>
</g>
<!-- types/results/node.ts -->
<g id="node35" class="node">
<title>types/results/node.ts</title>
<path fill="none" stroke="#c6c5fe" d="M1013.58,-165.88C1013.58,-165.88 889.67,-165.88 889.67,-165.88 885.71,-165.88 881.75,-161.92 881.75,-157.96 881.75,-157.96 881.75,-150.04 881.75,-150.04 881.75,-146.08 885.71,-142.12 889.67,-142.12 889.67,-142.12 1013.58,-142.12 1013.58,-142.12 1017.54,-142.12 1021.5,-146.08 1021.5,-150.04 1021.5,-150.04 1021.5,-157.96 1021.5,-157.96 1021.5,-161.92 1017.54,-165.88 1013.58,-165.88"/>
<text text-anchor="middle" x="951.62" y="-148.57" font-family="Arial" font-size="14.00" fill="#c6c5fe">types/results/node.ts</text>
</g>
<!-- types/results/index.ts&#45;&gt;types/results/node.ts -->
<g id="edge55" class="edge">
<title>types/results/index.ts&#45;&gt;types/results/node.ts</title>
<path fill="none" stroke="#757575" d="M788.65,-183.63C814.81,-178.84 844.93,-173.33 872.04,-168.37"/>
<polygon fill="#757575" stroke="#757575" points="872.36,-171.87 881.57,-166.63 871.1,-164.99 872.36,-171.87"/>
</g>
<!-- types/results/source.ts -->
<g id="node36" class="node">
<title>types/results/source.ts</title>
<path fill="none" stroke="#cfffac" d="M1018.83,-249.88C1018.83,-249.88 884.42,-249.88 884.42,-249.88 880.46,-249.88 876.5,-245.92 876.5,-241.96 876.5,-241.96 876.5,-234.04 876.5,-234.04 876.5,-230.08 880.46,-226.12 884.42,-226.12 884.42,-226.12 1018.83,-226.12 1018.83,-226.12 1022.79,-226.12 1026.75,-230.08 1026.75,-234.04 1026.75,-234.04 1026.75,-241.96 1026.75,-241.96 1026.75,-245.92 1022.79,-249.88 1018.83,-249.88"/>
<text text-anchor="middle" x="951.62" y="-232.57" font-family="Arial" font-size="14.00" fill="#cfffac">types/results/source.ts</text>
</g>
<!-- types/results/index.ts&#45;&gt;types/results/source.ts -->
<g id="edge57" class="edge">
<title>types/results/index.ts&#45;&gt;types/results/source.ts</title>
<path fill="none" stroke="#757575" d="M788.65,-208.37C814.81,-213.16 844.93,-218.67 872.04,-223.63"/>
<polygon fill="#757575" stroke="#757575" points="871.1,-227.01 881.57,-225.37 872.36,-220.13 871.1,-227.01"/>
</g>
<!-- types/state/workflow&#45;state.ts -->
<g id="node37" class="node">
<title>types/state/workflow&#45;state.ts</title>
<path fill="none" stroke="#c6c5fe" d="M578.08,-207.88C578.08,-207.88 408.42,-207.88 408.42,-207.88 404.46,-207.88 400.5,-203.92 400.5,-199.96 400.5,-199.96 400.5,-192.04 400.5,-192.04 400.5,-188.08 404.46,-184.12 408.42,-184.12 408.42,-184.12 578.08,-184.12 578.08,-184.12 582.04,-184.12 586,-188.08 586,-192.04 586,-192.04 586,-199.96 586,-199.96 586,-203.92 582.04,-207.88 578.08,-207.88"/>
<text text-anchor="middle" x="493.25" y="-190.57" font-family="Arial" font-size="14.00" fill="#c6c5fe">types/state/workflow&#45;state.ts</text>
</g>
<!-- types/state/index.ts&#45;&gt;types/state/workflow&#45;state.ts -->
<g id="edge65" class="edge">
<title>types/state/index.ts&#45;&gt;types/state/workflow&#45;state.ts</title>
<path fill="none" stroke="#757575" d="M364.92,-202.61C372.63,-202.21 380.64,-201.8 388.72,-201.38"/>
<polygon fill="#757575" stroke="#757575" points="388.84,-204.88 398.65,-200.86 388.48,-197.89 388.84,-204.88"/>
</g>
<!-- types/workflow.ts&#45;&gt;types/config/index.ts -->
<g id="edge68" class="edge">
<title>types/workflow.ts&#45;&gt;types/config/index.ts</title>
<path fill="none" stroke="#757575" d="M358.06,-447.55C552.98,-436.81 1179.98,-408.91 1365.25,-482 1411.95,-500.42 1456.44,-539.75 1480.84,-563.83"/>
<polygon fill="#757575" stroke="#757575" points="1478.29,-566.23 1487.82,-570.87 1483.26,-561.3 1478.29,-566.23"/>
</g>
<!-- types/workflow.ts&#45;&gt;types/nodes/index.ts -->
<g id="edge70" class="edge">
<title>types/workflow.ts&#45;&gt;types/nodes/index.ts</title>
<path fill="none" stroke="#757575" d="M323.76,-463.19C344.16,-473.53 374.24,-488.77 400.5,-502 419.34,-511.49 440.39,-522.05 457.56,-530.65"/>
<polygon fill="#757575" stroke="#757575" points="455.84,-533.7 466.35,-535.05 458.97,-527.44 455.84,-533.7"/>
</g>
<!-- types/workflow.ts&#45;&gt;types/nodes/agents.ts -->
<g id="edge69" class="edge">
<title>types/workflow.ts&#45;&gt;types/nodes/agents.ts</title>
<path fill="none" stroke="#757575" d="M352.85,-463.29C429.74,-481.07 571.91,-513.97 654.65,-533.11"/>
<polygon fill="#757575" stroke="#757575" points="653.67,-536.48 664.2,-535.32 655.24,-529.66 653.67,-536.48"/>
</g>
<!-- types/nodes/agents.ts&#45;&gt;types/config/http.ts -->
<g id="edge24" class="edge">
<title>types/nodes/agents.ts&#45;&gt;types/config/http.ts</title>
<path fill="none" stroke="#757575" d="M793.91,-555.77C802.63,-558.94 810.93,-563.22 818,-569 848.82,-594.19 821.09,-628.62 854,-651 980.52,-737.02 1454.65,-705.99 1639.98,-690.05"/>
<polygon fill="#757575" stroke="#757575" points="1640.06,-693.56 1649.72,-689.21 1639.46,-686.59 1640.06,-693.56"/>
</g>
<!-- types/nodes/common/base&#45;node&#45;schema.ts -->
<g id="node23" class="node">
<title>types/nodes/common/base&#45;node&#45;schema.ts</title>
<path fill="none" stroke="#c6c5fe" d="M1357.33,-595.88C1357.33,-595.88 1093.17,-595.88 1093.17,-595.88 1089.21,-595.88 1085.25,-591.92 1085.25,-587.96 1085.25,-587.96 1085.25,-580.04 1085.25,-580.04 1085.25,-576.08 1089.21,-572.12 1093.17,-572.12 1093.17,-572.12 1357.33,-572.12 1357.33,-572.12 1361.29,-572.12 1365.25,-576.08 1365.25,-580.04 1365.25,-580.04 1365.25,-587.96 1365.25,-587.96 1365.25,-591.92 1361.29,-595.88 1357.33,-595.88"/>
<text text-anchor="middle" x="1225.25" y="-578.58" font-family="Arial" font-size="14.00" fill="#c6c5fe">types/nodes/common/base&#45;node&#45;schema.ts</text>
</g>
<!-- types/nodes/agents.ts&#45;&gt;types/nodes/common/base&#45;node&#45;schema.ts -->
<g id="edge25" class="edge">
<title>types/nodes/agents.ts&#45;&gt;types/nodes/common/base&#45;node&#45;schema.ts</title>
<path fill="none" stroke="#757575" d="M793.91,-553.22C866.8,-558.43 981.05,-566.6 1073.51,-573.22"/>
<polygon fill="#757575" stroke="#757575" points="1073.23,-576.71 1083.45,-573.93 1073.73,-569.72 1073.23,-576.71"/>
</g>
<!-- types/nodes/common/base&#45;node&#45;schema.ts&#45;&gt;types/config/index.ts -->
<g id="edge26" class="edge">
<title>types/nodes/common/base&#45;node&#45;schema.ts&#45;&gt;types/config/index.ts</title>
<path fill="none" stroke="#757575" d="M1365.59,-584C1384.46,-584 1403.26,-584 1420.56,-584"/>
<polygon fill="#757575" stroke="#757575" points="1420.19,-587.5 1430.19,-584 1420.19,-580.5 1420.19,-587.5"/>
</g>
<!-- types/nodes/common/index.ts&#45;&gt;types/nodes/common/base&#45;node&#45;schema.ts -->
<g id="edge27" class="edge">
<title>types/nodes/common/index.ts&#45;&gt;types/nodes/common/base&#45;node&#45;schema.ts</title>
<path fill="none" stroke="#757575" d="M818.33,-588.84C890.72,-587.98 990.86,-586.78 1073.57,-585.8"/>
<polygon fill="#757575" stroke="#757575" points="1073.38,-589.3 1083.34,-585.68 1073.3,-582.3 1073.38,-589.3"/>
</g>
<!-- types/nodes/destination.ts&#45;&gt;types/config/index.ts -->
<g id="edge28" class="edge">
<title>types/nodes/destination.ts&#45;&gt;types/config/index.ts</title>
<path fill="none" stroke="#757575" d="M1037.88,-478.23C1140.22,-488.63 1305.53,-507.19 1365.25,-524 1401.84,-534.3 1441.3,-552.8 1468.03,-566.55"/>
<polygon fill="#757575" stroke="#757575" points="1466.14,-569.51 1476.62,-571.04 1469.38,-563.3 1466.14,-569.51"/>
</g>
<!-- types/nodes/destination.ts&#45;&gt;types/primitives/index.ts -->
<g id="edge30" class="edge">
<title>types/nodes/destination.ts&#45;&gt;types/primitives/index.ts</title>
<path fill="none" stroke="#757575" d="M1037.8,-471.69C1218.1,-475.26 1636.93,-483.55 1821.85,-487.21"/>
<polygon fill="#757575" stroke="#757575" points="1821.57,-490.7 1831.64,-487.4 1821.71,-483.7 1821.57,-490.7"/>
</g>
<!-- types/nodes/destination.ts&#45;&gt;types/nodes/common/base&#45;node&#45;schema.ts -->
<g id="edge29" class="edge">
<title>types/nodes/destination.ts&#45;&gt;types/nodes/common/base&#45;node&#45;schema.ts</title>
<path fill="none" stroke="#757575" d="M1026.63,-482.33C1034.44,-484.73 1042.13,-487.59 1049.25,-491 1067.79,-499.86 1067.79,-509.18 1085.25,-520 1115.89,-538.99 1153.09,-555.82 1181.29,-567.46"/>
<polygon fill="#757575" stroke="#757575" points="1179.65,-570.57 1190.23,-571.09 1182.28,-564.08 1179.65,-570.57"/>
</g>
<!-- types/nodes/error&#45;boundary.ts&#45;&gt;types/config/index.ts -->
<g id="edge31" class="edge">
<title>types/nodes/error&#45;boundary.ts&#45;&gt;types/config/index.ts</title>
<path fill="none" stroke="#757575" d="M1049.55,-626.7C1133.31,-623.23 1257.51,-616.63 1365.25,-605 1383.2,-603.06 1402.41,-600.42 1420.55,-597.66"/>
<polygon fill="#757575" stroke="#757575" points="1420.83,-601.16 1430.18,-596.17 1419.76,-594.24 1420.83,-601.16"/>
</g>
<!-- types/nodes/error&#45;boundary.ts&#45;&gt;types/nodes/common/base&#45;node&#45;schema.ts -->
<g id="edge32" class="edge">
<title>types/nodes/error&#45;boundary.ts&#45;&gt;types/nodes/common/base&#45;node&#45;schema.ts</title>
<path fill="none" stroke="#757575" d="M1025.42,-617.67C1060.73,-611.69 1103.36,-604.47 1140.07,-598.26"/>
<polygon fill="#757575" stroke="#757575" points="1140.49,-601.73 1149.77,-596.61 1139.32,-594.83 1140.49,-601.73"/>
</g>
<!-- types/nodes/http.ts&#45;&gt;types/behaviors/index.ts -->
<g id="edge33" class="edge">
<title>types/nodes/http.ts&#45;&gt;types/behaviors/index.ts</title>
<path fill="none" stroke="#757575" d="M983.84,-798.31C1010.46,-808.44 1049.92,-822.62 1085.25,-832 1101.5,-836.31 1119.01,-840.18 1135.94,-843.53"/>
<polygon fill="#757575" stroke="#757575" points="1134.99,-846.91 1145.47,-845.37 1136.31,-840.04 1134.99,-846.91"/>
</g>
<!-- types/nodes/http.ts&#45;&gt;types/config/http.ts -->
<g id="edge34" class="edge">
<title>types/nodes/http.ts&#45;&gt;types/config/http.ts</title>
<path fill="none" stroke="#757575" d="M1016.58,-795.45C1136.12,-810.39 1399.55,-830.32 1601,-752 1633.66,-739.3 1667.56,-717.45 1689.79,-701.74"/>
<polygon fill="#757575" stroke="#757575" points="1691.55,-704.79 1697.62,-696.1 1687.46,-699.11 1691.55,-704.79"/>
</g>
<!-- types/nodes/http.ts&#45;&gt;types/nodes/common/base&#45;node&#45;schema.ts -->
<g id="edge35" class="edge">
<title>types/nodes/http.ts&#45;&gt;types/nodes/common/base&#45;node&#45;schema.ts</title>
<path fill="none" stroke="#757575" d="M969.21,-773.67C1015.06,-739.57 1143.8,-643.83 1198.81,-602.92"/>
<polygon fill="#757575" stroke="#757575" points="1200.73,-605.85 1206.67,-597.07 1196.56,-600.23 1200.73,-605.85"/>
</g>
<!-- types/validation/schema.ts -->
<g id="node28" class="node">
<title>types/validation/schema.ts</title>
<path fill="none" stroke="#cfffac" d="M1304.83,-789.88C1304.83,-789.88 1145.67,-789.88 1145.67,-789.88 1141.71,-789.88 1137.75,-785.92 1137.75,-781.96 1137.75,-781.96 1137.75,-774.04 1137.75,-774.04 1137.75,-770.08 1141.71,-766.12 1145.67,-766.12 1145.67,-766.12 1304.83,-766.12 1304.83,-766.12 1308.79,-766.12 1312.75,-770.08 1312.75,-774.04 1312.75,-774.04 1312.75,-781.96 1312.75,-781.96 1312.75,-785.92 1308.79,-789.88 1304.83,-789.88"/>
<text text-anchor="middle" x="1225.25" y="-772.58" font-family="Arial" font-size="14.00" fill="#cfffac">types/validation/schema.ts</text>
</g>
<!-- types/nodes/http.ts&#45;&gt;types/validation/schema.ts -->
<g id="edge36" class="edge">
<title>types/nodes/http.ts&#45;&gt;types/validation/schema.ts</title>
<path fill="none" stroke="#757575" d="M1016.65,-784.11C1049.27,-783.15 1089.65,-781.96 1126.09,-780.89"/>
<polygon fill="#757575" stroke="#757575" points="1125.86,-784.4 1135.75,-780.61 1125.66,-777.4 1125.86,-784.4"/>
</g>
<!-- types/nodes/iterator.ts&#45;&gt;types/config/index.ts -->
<g id="edge44" class="edge">
<title>types/nodes/iterator.ts&#45;&gt;types/config/index.ts</title>
<path fill="none" stroke="#757575" d="M1025.76,-520.33C1108.31,-529.91 1246.58,-546.43 1365.25,-563 1383.13,-565.5 1402.32,-568.37 1420.44,-571.17"/>
<polygon fill="#757575" stroke="#757575" points="1419.66,-574.59 1430.08,-572.67 1420.73,-567.67 1419.66,-574.59"/>
</g>
<!-- types/nodes/iterator.ts&#45;&gt;types/nodes/common/base&#45;node&#45;schema.ts -->
<g id="edge45" class="edge">
<title>types/nodes/iterator.ts&#45;&gt;types/nodes/common/base&#45;node&#45;schema.ts</title>
<path fill="none" stroke="#757575" d="M1007.82,-524.36C1021.57,-528.12 1036.13,-532.68 1049.25,-538 1066.21,-544.87 1068.03,-551.79 1085.25,-558 1097.52,-562.42 1110.68,-566.13 1123.84,-569.23"/>
<polygon fill="#757575" stroke="#757575" points="1122.87,-572.6 1133.39,-571.36 1124.4,-565.77 1122.87,-572.6"/>
</g>
<!-- types/nodes/tools.ts&#45;&gt;types/config/http.ts -->
<g id="edge46" class="edge">
<title>types/nodes/tools.ts&#45;&gt;types/config/http.ts</title>
<path fill="none" stroke="#757575" d="M787.93,-723.61C935.55,-734.69 1299.93,-754.94 1601,-714 1623.44,-710.95 1647.73,-704.75 1668.09,-698.7"/>
<polygon fill="#757575" stroke="#757575" points="1668.98,-702.09 1677.51,-695.81 1666.93,-695.39 1668.98,-702.09"/>
</g>
<!-- types/nodes/tools.ts&#45;&gt;types/config/index.ts -->
<g id="edge47" class="edge">
<title>types/nodes/tools.ts&#45;&gt;types/config/index.ts</title>
<path fill="none" stroke="#757575" d="M788.06,-712.85C905.99,-702.87 1157.73,-677.51 1365.25,-629 1396.9,-621.6 1431.68,-609.91 1457.99,-600.29"/>
<polygon fill="#757575" stroke="#757575" points="1459.14,-603.6 1467.3,-596.85 1456.7,-597.04 1459.14,-603.6"/>
</g>
<!-- types/nodes/tools.ts&#45;&gt;types/nodes/http.ts -->
<g id="edge48" class="edge">
<title>types/nodes/tools.ts&#45;&gt;types/nodes/http.ts</title>
<path fill="none" stroke="#757575" d="M758.42,-730.29C785,-738.9 821.58,-750.52 854,-760 866.38,-763.62 879.71,-767.33 892.39,-770.76"/>
<polygon fill="#757575" stroke="#757575" points="891.3,-774.1 901.87,-773.32 893.12,-767.34 891.3,-774.1"/>
</g>
<!-- types/results/agent.ts&#45;&gt;types/results/shared.ts -->
<g id="edge51" class="edge">
<title>types/results/agent.ts&#45;&gt;types/results/shared.ts</title>
<path fill="none" stroke="#757575" d="M1023.64,-193.28C1123.72,-189.44 1306.05,-182.44 1413.82,-178.31"/>
<polygon fill="#757575" stroke="#757575" points="1413.92,-181.81 1423.78,-177.93 1413.65,-174.81 1413.92,-181.81"/>
</g>
<!-- types/results/agent.ts&#45;&gt;types/results/tool.ts -->
<g id="edge52" class="edge">
<title>types/results/agent.ts&#45;&gt;types/results/tool.ts</title>
<path fill="none" stroke="#757575" d="M1023.64,-205.93C1061.83,-211.28 1108.97,-217.87 1147.95,-223.33"/>
<polygon fill="#757575" stroke="#757575" points="1147.35,-226.78 1157.74,-224.69 1148.32,-219.84 1147.35,-226.78"/>
</g>
<!-- types/results/shared.ts&#45;&gt;types/context/index.ts -->
<g id="edge61" class="edge">
<title>types/results/shared.ts&#45;&gt;types/context/index.ts</title>
<path fill="none" stroke="#757575" d="M1521.01,-162.84C1558.37,-138.78 1641.93,-84.97 1686.15,-56.5"/>
<polygon fill="#757575" stroke="#757575" points="1687.95,-59.5 1694.46,-51.15 1684.16,-53.62 1687.95,-59.5"/>
</g>
<!-- types/results/shared.ts&#45;&gt;types/contracts/index.ts -->
<g id="edge62" class="edge">
<title>types/results/shared.ts&#45;&gt;types/contracts/index.ts</title>
<path fill="none" stroke="#757575" d="M1546.72,-187.37C1579.49,-196.45 1624.22,-208.86 1659.31,-218.59"/>
<polygon fill="#757575" stroke="#757575" points="1658.3,-221.94 1668.88,-221.24 1660.17,-215.2 1658.3,-221.94"/>
</g>
<!-- types/results/tool.ts&#45;&gt;types/contracts/index.ts -->
<g id="edge63" class="edge">
<title>types/results/tool.ts&#45;&gt;types/contracts/index.ts</title>
<path fill="none" stroke="#757575" d="M1291.39,-234C1377.28,-234 1528.79,-234 1625.38,-234"/>
<polygon fill="#757575" stroke="#757575" points="1625.37,-237.5 1635.37,-234 1625.37,-230.5 1625.37,-237.5"/>
</g>
<!-- types/results/tool.ts&#45;&gt;types/results/shared.ts -->
<g id="edge64" class="edge">
<title>types/results/tool.ts&#45;&gt;types/results/shared.ts</title>
<path fill="none" stroke="#757575" d="M1291.46,-222.57C1314.79,-218.28 1341.25,-213.18 1365.25,-208 1390.37,-202.58 1417.96,-195.95 1441.61,-190.06"/>
<polygon fill="#757575" stroke="#757575" points="1442.2,-193.52 1451.05,-187.69 1440.5,-186.73 1442.2,-193.52"/>
</g>
<!-- types/results/node.ts&#45;&gt;types/results/shared.ts -->
<g id="edge60" class="edge">
<title>types/results/node.ts&#45;&gt;types/results/shared.ts</title>
<path fill="none" stroke="#757575" d="M1021.97,-156.66C1121.74,-160.49 1305.66,-167.54 1414.01,-171.7"/>
<polygon fill="#757575" stroke="#757575" points="1413.58,-175.18 1423.71,-172.07 1413.85,-168.19 1413.58,-175.18"/>
</g>
<!-- types/results/node.ts&#45;&gt;types/results/base.ts -->
<g id="edge59" class="edge">
<title>types/results/node.ts&#45;&gt;types/results/base.ts</title>
<path fill="none" stroke="#757575" d="M1021.87,-144.31C1059.21,-139.09 1105.46,-132.62 1144.33,-127.18"/>
<polygon fill="#757575" stroke="#757575" points="1144.68,-130.67 1154.1,-125.81 1143.71,-123.73 1144.68,-130.67"/>
</g>
<!-- types/state/workflow&#45;state.ts&#45;&gt;types/context/index.ts -->
<g id="edge66" class="edge">
<title>types/state/workflow&#45;state.ts&#45;&gt;types/context/index.ts</title>
<path fill="none" stroke="#757575" d="M513.87,-183.86C575.62,-146.87 772.45,-38 950.62,-38 950.62,-38 950.62,-38 1226.25,-38 1368.64,-38 1534.37,-38 1631.62,-38"/>
<polygon fill="#757575" stroke="#757575" points="1631.33,-41.5 1641.33,-38 1631.33,-34.5 1631.33,-41.5"/>
</g>
<!-- types/state/workflow&#45;state.ts&#45;&gt;types/results/index.ts -->
<g id="edge67" class="edge">
<title>types/state/workflow&#45;state.ts&#45;&gt;types/results/index.ts</title>
<path fill="none" stroke="#757575" d="M586.31,-196C603.25,-196 620.83,-196 637.44,-196"/>
<polygon fill="#757575" stroke="#757575" points="637.25,-199.5 647.25,-196 637.25,-192.5 637.25,-199.5"/>
</g>
</g>
</svg>
